<?xml version="1.0" encoding="UTF-8"?>
<svg version="1.1" xmlns="http://www.w3.org/2000/svg" width="701" height="181">
<path d="M0 0 C6.6 0 13.2 0 20 0 C20.78246094 2.71992188 21.56492187 5.43984375 22.37109375 8.2421875 C23.12852047 10.87008946 23.88661512 13.49779787 24.64477539 16.12548828 C25.17216795 17.95471373 25.69886364 19.78414025 26.22485352 21.61376953 C26.98010981 24.24043845 27.73785226 26.866379 28.49609375 29.4921875 C28.84926918 30.72350906 28.84926918 30.72350906 29.20957947 31.97970581 C30.36019797 36.08117424 30.36019797 36.08117424 32 40 C35.96 26.8 39.92 13.6 44 0 C50.27 0 56.54 0 63 0 C63 1.32 63 2.64 63 4 C60.69 4 58.38 4 56 4 C56 21.82 56 39.64 56 58 C58.31 58 60.62 58 63 58 C63 58.99 63 59.98 63 61 C55.41 61 47.82 61 40 61 C40 60.01 40 59.02 40 58 C42.31 58 44.62 58 47 58 C46.67 42.49 46.34 26.98 46 11 C44.96359375 14.52558594 43.9271875 18.05117188 42.859375 21.68359375 C41.84731915 25.08366876 40.82946979 28.48195794 39.81103516 31.88012695 C39.10475147 34.2481112 38.40453303 36.6179131 37.71044922 38.98950195 C36.71338457 42.39246512 35.69489563 45.78835706 34.671875 49.18359375 C34.36441345 50.25024765 34.0569519 51.31690155 33.74017334 52.4158783 C33.44016418 53.39681961 33.14015503 54.37776093 32.83105469 55.38842773 C32.57346375 56.25668686 32.3158728 57.12494598 32.05047607 58.01951599 C31 60 31 60 28.88555908 60.78822327 C28.26332458 60.85810959 27.64109009 60.92799591 27 61 C24.69150183 55.08353776 22.80230121 49.14245856 21.08203125 43.03125 C20.84915405 42.21366211 20.61627686 41.39607422 20.37634277 40.55371094 C19.51808124 37.53684252 18.66562 34.51832639 17.8125 31.5 C15.894375 24.735 13.97625 17.97 12 11 C11.67 26.51 11.34 42.02 11 58 C13.31 58 15.62 58 18 58 C18 58.99 18 59.98 18 61 C12.06 61 6.12 61 0 61 C0 60.01 0 59.02 0 58 C2.31 58 4.62 58 7 58 C7 40.18 7 22.36 7 4 C4.69 4 2.38 4 0 4 C0 2.68 0 1.36 0 0 Z " fill="#1D1D1B" transform="translate(381,1)"/>
<path d="M0 0 C7.92 0 15.84 0 24 0 C24 1.32 24 2.64 24 4 C21.69 4 19.38 4 17 4 C17 11.92 17 19.84 17 28 C25.25 28 33.5 28 42 28 C42 20.08 42 12.16 42 4 C39.69 4 37.38 4 35 4 C35 2.68 35 1.36 35 0 C42.92 0 50.84 0 59 0 C59 1.32 59 2.64 59 4 C56.69 4 54.38 4 52 4 C52 21.82 52 39.64 52 58 C54.31 58 56.62 58 59 58 C59 58.99 59 59.98 59 61 C51.08 61 43.16 61 35 61 C35 60.01 35 59.02 35 58 C37.31 58 39.62 58 42 58 C42 49.09 42 40.18 42 31 C33.75 31 25.5 31 17 31 C17 39.91 17 48.82 17 58 C19.31 58 21.62 58 24 58 C24 58.99 24 59.98 24 61 C16.08 61 8.16 61 0 61 C0 60.01 0 59.02 0 58 C2.31 58 4.62 58 7 58 C7 40.18 7 22.36 7 4 C4.69 4 2.38 4 0 4 C0 2.68 0 1.36 0 0 Z " fill="#1D1D1B" transform="translate(0,1)"/>
<path d="M0 0 C4.3924631 -0.07482575 8.78457672 -0.12891683 13.17749023 -0.16479492 C14.66811598 -0.17977042 16.15869851 -0.20015819 17.64916992 -0.22631836 C36.83875079 -0.55440037 36.83875079 -0.55440037 44 5.5625 C46.92827317 9.13133292 47.29050426 11.32373812 47.21484375 15.97265625 C46.77256024 20.14620426 44.63940136 22.39516088 41.6875 25.1875 C38.8526581 27.09937012 36.28100205 28.08437152 33 29 C34.0725 29.53625 35.145 30.0725 36.25 30.625 C40.13845655 32.56922828 41.93176767 35.21117439 44 39 C44.65945442 41.71443481 44.91478012 44.40593203 45.125 47.1875 C45.54258379 52.88446532 45.54258379 52.88446532 48 58 C50.31 57.67 52.62 57.34 55 57 C55 58.32 55 59.64 55 61 C50.79372184 63.10313908 46.63483994 63.88887341 42 63 C37.67606486 60.7002367 35.47303788 57.59922308 34 53 C33.44309395 49.2047884 33.05313911 45.40911756 32.66015625 41.59375 C31.9941563 37.96818816 31.25541931 35.88861127 29 33 C24.39090008 30.40736224 24.39090008 30.40736224 16 30 C16 39.24 16 48.48 16 58 C18.31 58 20.62 58 23 58 C23 58.99 23 59.98 23 61 C15.08 61 7.16 61 -1 61 C-1 60.01 -1 59.02 -1 58 C1.31 58 3.62 58 6 58 C6 40.18 6 22.36 6 4 C4.02 4 2.04 4 0 4 C0 2.68 0 1.36 0 0 Z M16 4 C16 11.26 16 18.52 16 26 C19.0628125 26.0928125 19.0628125 26.0928125 22.1875 26.1875 C23.91033203 26.23970703 23.91033203 26.23970703 25.66796875 26.29296875 C29.31106113 25.97264996 31.10384462 25.18260985 34 23 C36.41553267 18.97411221 36.61968761 14.57828906 36 10 C34.27032287 6.25452396 34.27032287 6.25452396 31 4 C28.44612508 3.92826194 25.92723239 3.90712268 23.375 3.9375 C20.94125 3.958125 18.5075 3.97875 16 4 Z " fill="#1D1D1B" transform="translate(151,1)"/>
<path d="M0 0 C6.5294535 4.65299841 11.77316068 11.78015018 13.38671875 19.73828125 C14.6660236 30.74380795 14.50121889 41.11474392 8.09375 50.50390625 C3.57114117 56.04512067 -2.09950078 60.60618409 -9.45703125 61.4296875 C-16.95270242 61.65828742 -23.51753091 60.41911788 -29.37109375 55.4609375 C-36.73377781 47.59589546 -39.71854157 38.40715056 -39.5390625 27.74609375 C-38.67834188 17.32181067 -35.1756372 8.33932409 -27.328125 1.25390625 C-19.34595127 -4.23383819 -8.4704608 -5.02277324 0 0 Z M-21.328125 3.19140625 C-27.89578497 10.82409217 -27.66900132 20.07743598 -27.640625 29.62890625 C-27.65673828 30.70978516 -27.67285156 31.79066406 -27.68945312 32.90429688 C-27.6943186 40.92746875 -27.1146392 47.92914573 -21.765625 54.19140625 C-17.77081287 57.46920082 -14.9359272 57.59702706 -9.87109375 57.53125 C-5.59665941 56.96001223 -4.16187981 55.43985689 -1.328125 52.19140625 C4.86971631 40.43687963 4.24186153 22.82675183 0.671875 10.19140625 C-1.0684877 6.32564485 -3.57701091 3.22772533 -7.328125 1.19140625 C-12.93761573 -0.29034602 -16.32191281 0.2632444 -21.328125 3.19140625 Z " fill="#1D1D1B" transform="translate(360.328125,2.80859375)"/>
<path d="M0 0 C6.32205675 3.20075404 11.33450638 8.87587881 14.25 15.3125 C17.92325278 26.54833204 17.69166824 38.92436839 12.3125 49.5625 C7.58388929 56.36365072 2.51204452 60.76597058 -5.6875 62.5625 C-12.6390774 63.38749265 -18.6422299 62.11559749 -24.6875 58.5625 C-31.39212588 52.89427621 -35.32458353 45.17716069 -36.6875 36.5625 C-37.42902034 25.68211503 -36.53944923 16.07975807 -29.50390625 7.38671875 C-21.38485459 -0.76725357 -11.08665779 -4.24185168 0 0 Z M-18.6875 4.5625 C-25.91911515 11.67963048 -25.67905553 23.29566254 -25.9375 32.8125 C-25.6952662 41.39042631 -24.66859823 49.97007405 -18.6875 56.5625 C-14.51941591 59.18908192 -10.47186692 59.20318913 -5.6875 58.5625 C-1.27689705 56.64846476 0.60487557 54.47783184 2.625 50.25 C7.47584914 37.83102109 6.57451002 21.4165272 2 9 C-0.82589731 4.91814832 -3.25048845 2.96166988 -8.0625 1.625 C-12.55844621 1.54748369 -14.84184225 2.21237582 -18.6875 4.5625 Z " fill="#1D1D1B" transform="translate(297.6875,1.4375)"/>
<path d="M0 0 C6.4698876 -1.85361214 12.75663713 -3.14013245 19 0 C25.62970418 7.20204332 29.84385868 16.44796096 34.05981445 25.20263672 C36.47410189 29.92792008 39.26991823 34.44986372 42 39 C42.33 27.45 42.66 15.9 43 4 C40.69 4 38.38 4 36 4 C36 2.68 36 1.36 36 0 C41.94 0 47.88 0 54 0 C54 1.32 54 2.64 54 4 C51.69 4 49.38 4 47 4 C47 23.47 47 42.94 47 63 C45.68 63 44.36 63 43 63 C41.22338867 60.73461914 41.22338867 60.73461914 39.41796875 57.53515625 C39.0865387 56.95851227 38.75510864 56.38186829 38.41363525 55.78775024 C37.32460197 53.88676618 36.25642822 51.97484904 35.1875 50.0625 C34.43993795 48.75073555 33.69065349 47.43995127 32.93969727 46.13012695 C31.78346466 44.11308946 30.62829989 42.09552677 29.47850037 40.07481384 C25.57209763 33.2135818 21.51713694 26.44697018 17.4375 19.6875 C15.313125 16.160625 13.18875 12.63375 11 9 C10.67 25.17 10.34 41.34 10 58 C12.31 58 14.62 58 17 58 C17 58.99 17 59.98 17 61 C11.39 61 5.78 61 0 61 C0 60.01 0 59.02 0 58 C1.98 58 3.96 58 6 58 C6 40.18 6 22.36 6 4 C4.02 4 2.04 4 0 4 C0 2.68 0 1.36 0 0 Z " fill="#1D1D1B" transform="translate(474,1)"/>
<path d="M0 0 C14.85 0 29.7 0 45 0 C45 5.28 45 10.56 45 16 C44.01 16 43.02 16 42 16 C41.74605469 15.37351562 41.49210937 14.74703125 41.23046875 14.1015625 C40.88628906 13.28429688 40.54210937 12.46703125 40.1875 11.625 C39.85105469 10.81289062 39.51460937 10.00078125 39.16796875 9.1640625 C38.05560918 6.69852542 38.05560918 6.69852542 35 5 C32.87662229 4.63566627 32.87662229 4.63566627 30.55078125 4.5859375 C29.78677002 4.55032715 29.02275879 4.5147168 28.2355957 4.47802734 C26.78866333 4.42702881 26.78866333 4.42702881 25.3125 4.375 C22.239375 4.25125 19.16625 4.1275 16 4 C16 11.92 16 19.84 16 28 C19.3 27.01 22.6 26.02 26 25 C27.77350525 21.47141891 27.77350525 21.47141891 28 18 C28.99 18 29.98 18 31 18 C31 25.92 31 33.84 31 42 C30.01 42 29.02 42 28 42 C27.71125 40.88625 27.4225 39.7725 27.125 38.625 C26.30758671 34.99708908 26.30758671 34.99708908 24 33 C21.36 32.34 18.72 31.68 16 31 C16 39.91 16 48.82 16 58 C18.68125 57.896875 21.3625 57.79375 24.125 57.6875 C24.95789551 57.66260498 25.79079102 57.63770996 26.64892578 57.61206055 C31.40491025 57.3788573 34.92406795 56.68654948 39 54 C40.48919916 52.12946339 40.48919916 52.12946339 41.3125 50 C41.61800781 49.319375 41.92351562 48.63875 42.23828125 47.9375 C42.87765003 46.31120813 43.44740452 44.65778645 44 43 C44.99 43 45.98 43 47 43 C47 48.94 47 54.88 47 61 C31.49 61 15.98 61 0 61 C0 60.01 0 59.02 0 58 C1.98 58 3.96 58 6 58 C6 40.18 6 22.36 6 4 C4.02 4 2.04 4 0 4 C0 2.68 0 1.36 0 0 Z " fill="#1D1D1B" transform="translate(66,1)"/>
<path d="M0 0 C3.68489745 2.00441197 3.68489745 2.00441197 10.1875 0.4375 C10.1875 5.7175 10.1875 10.9975 10.1875 16.4375 C9.1975 16.4375 8.2075 16.4375 7.1875 16.4375 C6.84138672 15.64085937 6.84138672 15.64085937 6.48828125 14.828125 C4.0307771 9.50515157 1.87198508 5.85623851 -3.8515625 3.65234375 C-8.69958108 2.26124564 -12.45936495 2.15612115 -17.08984375 4.2734375 C-21.44668532 7.21751639 -22.8398608 11.89294017 -24.0625 16.75 C-25.98821385 28.11344657 -27.07954285 44.25011656 -20.62890625 54.27734375 C-17.71668035 57.2555691 -14.71643528 57.77223186 -10.75 57.9375 C-6.71181869 57.71889169 -3.93863306 57.17286642 -0.8125 54.4375 C0.93621031 51.51878926 1.5149615 49.05960296 1.8125 45.6875 C1.88726563 44.88828125 1.96203125 44.0890625 2.0390625 43.265625 C2.08804688 42.66234375 2.13703125 42.0590625 2.1875 41.4375 C-0.4525 41.4375 -3.0925 41.4375 -5.8125 41.4375 C-5.8125 40.4475 -5.8125 39.4575 -5.8125 38.4375 C2.4375 38.4375 10.6875 38.4375 19.1875 38.4375 C19.1875 39.4275 19.1875 40.4175 19.1875 41.4375 C17.2075 41.4375 15.2275 41.4375 13.1875 41.4375 C13.14882813 42.30761719 13.14882813 42.30761719 13.109375 43.1953125 C12.71254164 48.66079013 11.938454 52.20565446 8.1875 56.4375 C0.91838138 62.04901625 -5.76654765 63.15307534 -14.8125 62.4375 C-21.89325898 61.16389814 -27.08637567 57.82656485 -31.8125 52.4375 C-38.22240937 42.50769821 -38.40626581 29.63981066 -36.19921875 18.28125 C-33.43429231 10.58330503 -27.87039059 3.65494341 -20.5625 -0.125 C-14.10915758 -2.5589596 -6.30487892 -3.06034572 0 0 Z " fill="#1D1D1B" transform="translate(626.8125,1.5625)"/>
<path d="M0 0 C1.32 0 2.64 0 4 0 C10.46521609 19.29206456 16.92599758 38.58030212 23 58 C25.97 58.495 25.97 58.495 29 59 C29 59.99 29 60.98 29 62 C21.08 62 13.16 62 5 62 C5 61.01 5 60.02 5 59 C7.31 59 9.62 59 12 59 C11.6390625 57.95199219 11.278125 56.90398438 10.90625 55.82421875 C10.43726182 54.44539349 9.9685249 53.06648275 9.5 51.6875 C9.26152344 50.99720703 9.02304687 50.30691406 8.77734375 49.59570312 C7.76791737 46.61068511 7 44.17341086 7 41 C1.39 41 -4.22 41 -10 41 C-10.45375 42.85625 -10.9075 44.7125 -11.375 46.625 C-12.42097228 50.81880355 -13.53048615 54.93057703 -15 59 C-12.69 59 -10.38 59 -8 59 C-8 59.99 -8 60.98 -8 62 C-14.27 62 -20.54 62 -27 62 C-27 61.01 -27 60.02 -27 59 C-24.69 59 -22.38 59 -20 59 C-19.82997971 58.34021652 -19.65995941 57.68043304 -19.48478699 57.00065613 C-17.63785126 50.01284524 -15.42858013 43.22664077 -12.98828125 36.42578125 C-12.61519333 35.37593552 -12.24210541 34.32608978 -11.85771179 33.24443054 C-10.67974669 29.93242929 -9.49622606 26.62244604 -8.3125 23.3125 C-7.50679137 21.05026198 -6.70144939 18.78789335 -5.89648438 16.52539062 C-3.93522226 11.01541117 -1.96941041 5.50707194 0 0 Z M-2 17 C-3.00577013 19.76886123 -4.00480147 22.53984104 -5 25.3125 C-5.28617188 26.09818359 -5.57234375 26.88386719 -5.8671875 27.69335938 C-6.13789062 28.45068359 -6.40859375 29.20800781 -6.6875 29.98828125 C-6.93886719 30.68477783 -7.19023438 31.38127441 -7.44921875 32.09887695 C-8.13913536 34.150368 -8.13913536 34.150368 -8 37 C-3.71 37 0.58 37 5 37 C3.77830046 29.87341937 1.9011452 23.61911769 -1 17 C-1.33 17 -1.66 17 -2 17 Z " fill="#1D1D1B" transform="translate(672,0)"/>
<path d="M0 0 C2.475 0.495 2.475 0.495 5 1 C7.35213104 8.11758087 9.69948168 15.23672284 12.04072571 22.35789204 C13.12798916 25.66442485 14.21689722 28.97039701 15.30957031 32.27514648 C16.56545166 36.07375507 17.81416458 39.87468611 19.0625 43.67578125 C19.45622803 44.86335526 19.84995605 46.05092926 20.25561523 47.27449036 C20.61598877 48.37540512 20.9763623 49.47631989 21.34765625 50.6105957 C21.66742432 51.58100296 21.98719238 52.55141022 22.31665039 53.55122375 C23 56 23 56 23 59 C24.98 59 26.96 59 29 59 C29 59.99 29 60.98 29 62 C21.08 62 13.16 62 5 62 C5 61.01 5 60.02 5 59 C7.31 59 9.62 59 12 59 C11.45859375 57.30230469 11.45859375 57.30230469 10.90625 55.5703125 C10.43735018 54.08858907 9.96860836 52.60681563 9.5 51.125 C9.26152344 50.37863281 9.02304687 49.63226563 8.77734375 48.86328125 C7 43.2265625 7 43.2265625 7 41 C1.39 41 -4.22 41 -10 41 C-10.268125 42.299375 -10.53625 43.59875 -10.8125 44.9375 C-11.87444763 49.75064394 -13.35403264 54.35837204 -15 59 C-12.69 59 -10.38 59 -8 59 C-8 59.99 -8 60.98 -8 62 C-14.27 62 -20.54 62 -27 62 C-27 61.01 -27 60.02 -27 59 C-23.535 58.505 -23.535 58.505 -20 58 C-13.4 38.86 -6.8 19.72 0 0 Z M-2 17 C-3.00486895 19.95670218 -4.00306024 22.91561577 -5 25.875 C-5.28617188 26.71675781 -5.57234375 27.55851562 -5.8671875 28.42578125 C-6.13789062 29.23144531 -6.40859375 30.03710938 -6.6875 30.8671875 C-7.06455078 31.98262939 -7.06455078 31.98262939 -7.44921875 33.12060547 C-8.09374494 34.99347314 -8.09374494 34.99347314 -8 37 C-3.71 37 0.58 37 5 37 C3.77830046 29.87341937 1.9011452 23.61911769 -1 17 C-1.33 17 -1.66 17 -2 17 Z " fill="#1D1D1B" transform="translate(558,0)"/>
<path d="M0 0 C8.58 0 17.16 0 26 0 C26 1.32 26 2.64 26 4 C23.03 4 20.06 4 17 4 C17 21.82 17 39.64 17 58 C31.72606359 58.12515551 31.72606359 58.12515551 39 54 C40.50324556 51.86307364 40.50324556 51.86307364 41.3125 49.4375 C41.61800781 48.65246094 41.92351562 47.86742187 42.23828125 47.05859375 C42.61533203 46.03958984 42.61533203 46.03958984 43 45 C43.495 44.01 43.495 44.01 44 43 C44.99 43 45.98 43 47 43 C46.67 48.94 46.34 54.88 46 61 C30.82 61 15.64 61 0 61 C0 60.01 0 59.02 0 58 C2.31 58 4.62 58 7 58 C7 40.18 7 22.36 7 4 C4.69 4 2.38 4 0 4 C0 2.68 0 1.36 0 0 Z " fill="#1D1D1B" transform="translate(210,1)"/>
<path d="M0 0 C8.58 0 17.16 0 26 0 C26 1.32 26 2.64 26 4 C23.36 4 20.72 4 18 4 C18 21.82 18 39.64 18 58 C20.64 58 23.28 58 26 58 C26 58.99 26 59.98 26 61 C17.42 61 8.84 61 0 61 C0 60.01 0 59.02 0 58 C2.64 58 5.28 58 8 58 C8 40.18 8 22.36 8 4 C5.36 4 2.72 4 0 4 C0 2.68 0 1.36 0 0 Z " fill="#1D1D1B" transform="translate(119,1)"/>
<path d="M0 0 C0.66 0.66 1.32 1.32 2 2 C1.9375 4.4375 1.9375 4.4375 1 7 C-3.08084428 10.19602571 -6.40370262 10.40557778 -11.5 10.375 C-12.7890625 10.38273437 -14.078125 10.39046875 -15.40625 10.3984375 C-19.1461249 9.9837992 -21.0674693 9.31631412 -24 7 C-24.8125 4.3125 -24.8125 4.3125 -25 2 C-17.37168565 -4.56882625 -8.77498798 -4.65611607 0 0 Z " fill="#1D1D1B" transform="translate(33,114)"/>
<path d="M0 0 C0.66 0.66 1.32 1.32 2 2 C1.9375 4.4375 1.9375 4.4375 1 7 C-3.08084428 10.19602571 -6.40370262 10.40557778 -11.5 10.375 C-12.7890625 10.38273437 -14.078125 10.39046875 -15.40625 10.3984375 C-19.1461249 9.9837992 -21.0674693 9.31631412 -24 7 C-24.8125 4.3125 -24.8125 4.3125 -25 2 C-17.37168565 -4.56882625 -8.77498798 -4.65611607 0 0 Z " fill="#1D1D1B" transform="translate(33,94)"/>
<path d="M0 0 C0.66 0.66 1.32 1.32 2 2 C1.9375 4.4375 1.9375 4.4375 1 7 C-3.08084428 10.19602571 -6.40370262 10.40557778 -11.5 10.375 C-12.7890625 10.38273437 -14.078125 10.39046875 -15.40625 10.3984375 C-19.14111172 9.98435501 -21.03385232 9.24942054 -24 7 C-25.125 5.125 -25.125 5.125 -25 3 C-18.40014068 -5.10839859 -8.71805875 -4.62590873 0 0 Z " fill="#1D1D1B" transform="translate(221,114)"/>
<path d="M0 0 C0.66 0.66 1.32 1.32 2 2 C1.9375 4.4375 1.9375 4.4375 1 7 C-3.08084428 10.19602571 -6.40370262 10.40557778 -11.5 10.375 C-12.7890625 10.38273437 -14.078125 10.39046875 -15.40625 10.3984375 C-19.14111172 9.98435501 -21.03385232 9.24942054 -24 7 C-25.125 5.125 -25.125 5.125 -25 3 C-18.40014068 -5.10839859 -8.71805875 -4.62590873 0 0 Z " fill="#1D1D1B" transform="translate(174,114)"/>
<path d="M0 0 C0.66 0.66 1.32 1.32 2 2 C1.9375 4.4375 1.9375 4.4375 1 7 C-3.08084428 10.19602571 -6.40370262 10.40557778 -11.5 10.375 C-12.7890625 10.38273437 -14.078125 10.39046875 -15.40625 10.3984375 C-19.14111172 9.98435501 -21.03385232 9.24942054 -24 7 C-25.125 5.125 -25.125 5.125 -25 3 C-18.40014068 -5.10839859 -8.71805875 -4.62590873 0 0 Z " fill="#1D1D1B" transform="translate(127,114)"/>
<path d="M0 0 C0.66 0.66 1.32 1.32 2 2 C1.9375 4.4375 1.9375 4.4375 1 7 C-3.08084428 10.19602571 -6.40370262 10.40557778 -11.5 10.375 C-12.7890625 10.38273437 -14.078125 10.39046875 -15.40625 10.3984375 C-19.14111172 9.98435501 -21.03385232 9.24942054 -24 7 C-25.125 5.125 -25.125 5.125 -25 3 C-18.40014068 -5.10839859 -8.71805875 -4.62590873 0 0 Z " fill="#1D1D1B" transform="translate(80,114)"/>
<path d="M0 0 C0.66 0.66 1.32 1.32 2 2 C1.9375 4.4375 1.9375 4.4375 1 7 C-3.08084428 10.19602571 -6.40370262 10.40557778 -11.5 10.375 C-12.7890625 10.38273437 -14.078125 10.39046875 -15.40625 10.3984375 C-19.14111172 9.98435501 -21.03385232 9.24942054 -24 7 C-25.125 5.125 -25.125 5.125 -25 3 C-18.40014068 -5.10839859 -8.71805875 -4.62590873 0 0 Z " fill="#1D1D1B" transform="translate(127,94)"/>
<path d="M0 0 C0.66 0.66 1.32 1.32 2 2 C1.9375 4.4375 1.9375 4.4375 1 7 C-3.08084428 10.19602571 -6.40370262 10.40557778 -11.5 10.375 C-12.7890625 10.38273437 -14.078125 10.39046875 -15.40625 10.3984375 C-19.14111172 9.98435501 -21.03385232 9.24942054 -24 7 C-25.125 5.125 -25.125 5.125 -25 3 C-18.40014068 -5.10839859 -8.71805875 -4.62590873 0 0 Z " fill="#1D1D1B" transform="translate(80,94)"/>
<path d="M0 0 C0.36585366 4.51219512 0.36585366 4.51219512 -1.3125 6.75 C-4.90847358 9.41368413 -8.5576064 9.19523391 -12.875 9.25 C-14.08929688 9.27578125 -15.30359375 9.3015625 -16.5546875 9.328125 C-20.52048261 8.95043023 -23.16462352 7.83537648 -26 5 C-26.3125 2.625 -26.3125 2.625 -26 0 C-18.82013739 -7.17986261 -7.74234955 -4.58805899 0 0 Z " fill="#1D1D1B" transform="translate(411,95)"/>
<path d="M0 0 C0.36585366 4.51219512 0.36585366 4.51219512 -1.3125 6.75 C-4.90847358 9.41368413 -8.5576064 9.19523391 -12.875 9.25 C-14.08929688 9.27578125 -15.30359375 9.3015625 -16.5546875 9.328125 C-20.52048261 8.95043023 -23.16462352 7.83537648 -26 5 C-26.3125 2.625 -26.3125 2.625 -26 0 C-18.82013739 -7.17986261 -7.74234955 -4.58805899 0 0 Z " fill="#1D1D1B" transform="translate(364,95)"/>
<path d="M0 0 C0.36585366 4.51219512 0.36585366 4.51219512 -1.3125 6.75 C-4.90847358 9.41368413 -8.5576064 9.19523391 -12.875 9.25 C-14.08929688 9.27578125 -15.30359375 9.3015625 -16.5546875 9.328125 C-20.52048261 8.95043023 -23.16462352 7.83537648 -26 5 C-26.3125 2.625 -26.3125 2.625 -26 0 C-18.82013739 -7.17986261 -7.74234955 -4.58805899 0 0 Z " fill="#1D1D1B" transform="translate(317,95)"/>
<path d="M0 0 C0.36585366 4.51219512 0.36585366 4.51219512 -1.3125 6.75 C-4.90847358 9.41368413 -8.5576064 9.19523391 -12.875 9.25 C-14.08929688 9.27578125 -15.30359375 9.3015625 -16.5546875 9.328125 C-20.52048261 8.95043023 -23.16462352 7.83537648 -26 5 C-26.3125 2.625 -26.3125 2.625 -26 0 C-18.82013739 -7.17986261 -7.74234955 -4.58805899 0 0 Z " fill="#1D1D1B" transform="translate(270,95)"/>
<path d="M0 0 C0.66 0.66 1.32 1.32 2 2 C1.9375 4.4375 1.9375 4.4375 1 7 C-2.94753088 10.04046956 -6.0226242 10.40701873 -10.9375 10.375 C-12.12214844 10.38273437 -13.30679688 10.39046875 -14.52734375 10.3984375 C-18.31576924 9.96377001 -20.75256398 8.96580697 -24 7 C-25.1875 5.125 -25.1875 5.125 -25 3 C-18.40014068 -5.10839859 -8.71805875 -4.62590873 0 0 Z " fill="#1D1D1B" transform="translate(221,94)"/>
<path d="M0 0 C0.66 0.66 1.32 1.32 2 2 C1.9375 4.4375 1.9375 4.4375 1 7 C-2.94753088 10.04046956 -6.0226242 10.40701873 -10.9375 10.375 C-12.12214844 10.38273437 -13.30679688 10.39046875 -14.52734375 10.3984375 C-18.31576924 9.96377001 -20.75256398 8.96580697 -24 7 C-25.1875 5.125 -25.1875 5.125 -25 3 C-18.40014068 -5.10839859 -8.71805875 -4.62590873 0 0 Z " fill="#1D1D1B" transform="translate(174,94)"/>
<path d="M0 0 C1.89698812 0.95694766 3.73855239 2.02229609 5.56640625 3.10546875 C5.93225991 7.61766387 5.93225991 7.61766387 4.25390625 9.85546875 C0.65793267 12.51915288 -2.99120015 12.30070266 -7.30859375 12.35546875 C-8.52289063 12.38125 -9.7371875 12.40703125 -10.98828125 12.43359375 C-14.95407636 12.05589898 -17.59821727 10.94084523 -20.43359375 8.10546875 C-20.80859375 5.73046875 -20.80859375 5.73046875 -20.43359375 3.10546875 C-14.55747973 -1.34132024 -6.96508764 -2.56020075 0 0 Z " fill="#1D1D1B" transform="translate(499.43359375,111.89453125)"/>
<path d="M0 0 C1.89698812 0.95694766 3.73855239 2.02229609 5.56640625 3.10546875 C5.93225991 7.61766387 5.93225991 7.61766387 4.25390625 9.85546875 C0.65793267 12.51915288 -2.99120015 12.30070266 -7.30859375 12.35546875 C-8.52289063 12.38125 -9.7371875 12.40703125 -10.98828125 12.43359375 C-14.95407636 12.05589898 -17.59821727 10.94084523 -20.43359375 8.10546875 C-20.80859375 5.73046875 -20.80859375 5.73046875 -20.43359375 3.10546875 C-14.55747973 -1.34132024 -6.96508764 -2.56020075 0 0 Z " fill="#1D1D1B" transform="translate(452.43359375,111.89453125)"/>
<path d="M0 0 C1 1 1 1 1.25 3.375 C1 6 1 6 -0.3125 7.75 C-3.90847358 10.41368413 -7.5576064 10.19523391 -11.875 10.25 C-13.08929688 10.27578125 -14.30359375 10.3015625 -15.5546875 10.328125 C-19.52048261 9.95043023 -22.16462352 8.83537648 -25 6 C-25.3125 3.625 -25.3125 3.625 -25 1 C-18.2358803 -5.7641197 -7.79529985 -3.48004458 0 0 Z " fill="#1D1D1B" transform="translate(269,114)"/>
<path d="M0 0 C2.9375 1.5625 2.9375 1.5625 3.9375 2.5625 C4.23883118 5.42514617 4.38392032 6.9672729 2.625 9.3125 C-0.97097358 11.97618413 -4.6201064 11.75773391 -8.9375 11.8125 C-10.15179687 11.83828125 -11.36609375 11.8640625 -12.6171875 11.890625 C-16.58298261 11.51293023 -19.22712352 10.39787648 -22.0625 7.5625 C-22.10313832 5.89632885 -22.105221 4.22861905 -22.0625 2.5625 C-14.80789163 -1.73652718 -8.05922316 -3.33598991 0 0 Z " fill="#1D1D1B" transform="translate(689.0625,92.4375)"/>
<path d="M0 0 C1.89698812 0.95694766 3.73855239 2.02229609 5.56640625 3.10546875 C5.93225991 7.61766387 5.93225991 7.61766387 4.25390625 9.85546875 C0.65793267 12.51915288 -2.99120015 12.30070266 -7.30859375 12.35546875 C-8.52289062 12.38125 -9.7371875 12.40703125 -10.98828125 12.43359375 C-14.95407636 12.05589898 -17.59821727 10.94084523 -20.43359375 8.10546875 C-20.80859375 5.73046875 -20.80859375 5.73046875 -20.43359375 3.10546875 C-14.55747973 -1.34132024 -6.96508764 -2.56020075 0 0 Z " fill="#1D1D1B" transform="translate(593.43359375,91.89453125)"/>
<path d="M0 0 C1.89698812 0.95694766 3.73855239 2.02229609 5.56640625 3.10546875 C5.93225991 7.61766387 5.93225991 7.61766387 4.25390625 9.85546875 C0.65793267 12.51915288 -2.99120015 12.30070266 -7.30859375 12.35546875 C-8.52289062 12.38125 -9.7371875 12.40703125 -10.98828125 12.43359375 C-14.95407636 12.05589898 -17.59821727 10.94084523 -20.43359375 8.10546875 C-20.80859375 5.73046875 -20.80859375 5.73046875 -20.43359375 3.10546875 C-14.55747973 -1.34132024 -6.96508764 -2.56020075 0 0 Z " fill="#1D1D1B" transform="translate(546.43359375,91.89453125)"/>
<path d="M0 0 C1.89698812 0.95694766 3.73855239 2.02229609 5.56640625 3.10546875 C5.93225991 7.61766387 5.93225991 7.61766387 4.25390625 9.85546875 C0.65793267 12.51915288 -2.99120015 12.30070266 -7.30859375 12.35546875 C-8.52289063 12.38125 -9.7371875 12.40703125 -10.98828125 12.43359375 C-14.95407636 12.05589898 -17.59821727 10.94084523 -20.43359375 8.10546875 C-20.80859375 5.73046875 -20.80859375 5.73046875 -20.43359375 3.10546875 C-14.55747973 -1.34132024 -6.96508764 -2.56020075 0 0 Z " fill="#1D1D1B" transform="translate(499.43359375,91.89453125)"/>
<path d="M0 0 C1.89698812 0.95694766 3.73855239 2.02229609 5.56640625 3.10546875 C5.93225991 7.61766387 5.93225991 7.61766387 4.25390625 9.85546875 C0.65793267 12.51915288 -2.99120015 12.30070266 -7.30859375 12.35546875 C-8.52289063 12.38125 -9.7371875 12.40703125 -10.98828125 12.43359375 C-14.95407636 12.05589898 -17.59821727 10.94084523 -20.43359375 8.10546875 C-20.80859375 5.73046875 -20.80859375 5.73046875 -20.43359375 3.10546875 C-14.55747973 -1.34132024 -6.96508764 -2.56020075 0 0 Z " fill="#1D1D1B" transform="translate(452.43359375,91.89453125)"/>
<path d="M0 0 C1.90780134 0.94378865 3.75482097 2.00864391 5.5859375 3.09375 C5.95179116 7.60594512 5.95179116 7.60594512 4.2734375 9.84375 C0.67746392 12.50743413 -2.9716689 12.28898391 -7.2890625 12.34375 C-8.50335937 12.36953125 -9.71765625 12.3953125 -10.96875 12.421875 C-14.93454511 12.04418023 -17.57868602 10.92912648 -20.4140625 8.09375 C-20.45470082 6.42757885 -20.4567835 4.75986905 -20.4140625 3.09375 C-13.74157144 -0.86031878 -7.57172087 -2.84245832 0 0 Z " fill="#1D1D1B" transform="translate(687.4140625,111.90625)"/>
<path d="M0 0 C1.90780134 0.94378865 3.75482097 2.00864391 5.5859375 3.09375 C5.95179116 7.60594512 5.95179116 7.60594512 4.2734375 9.84375 C0.67746392 12.50743413 -2.9716689 12.28898391 -7.2890625 12.34375 C-8.50335937 12.36953125 -9.71765625 12.3953125 -10.96875 12.421875 C-14.93454511 12.04418023 -17.57868602 10.92912648 -20.4140625 8.09375 C-20.45470082 6.42757885 -20.4567835 4.75986905 -20.4140625 3.09375 C-13.74157144 -0.86031878 -7.57172087 -2.84245832 0 0 Z " fill="#1D1D1B" transform="translate(640.4140625,111.90625)"/>
<path d="M0 0 C1.90780134 0.94378865 3.75482097 2.00864391 5.5859375 3.09375 C5.95179116 7.60594512 5.95179116 7.60594512 4.2734375 9.84375 C0.67746392 12.50743413 -2.9716689 12.28898391 -7.2890625 12.34375 C-8.50335937 12.36953125 -9.71765625 12.3953125 -10.96875 12.421875 C-14.93454511 12.04418023 -17.57868602 10.92912648 -20.4140625 8.09375 C-20.45470082 6.42757885 -20.4567835 4.75986905 -20.4140625 3.09375 C-13.74157144 -0.86031878 -7.57172087 -2.84245832 0 0 Z " fill="#1D1D1B" transform="translate(593.4140625,111.90625)"/>
<path d="M0 0 C1.90780134 0.94378865 3.75482097 2.00864391 5.5859375 3.09375 C5.95179116 7.60594512 5.95179116 7.60594512 4.2734375 9.84375 C0.67746392 12.50743413 -2.9716689 12.28898391 -7.2890625 12.34375 C-8.50335937 12.36953125 -9.71765625 12.3953125 -10.96875 12.421875 C-14.93454511 12.04418023 -17.57868602 10.92912648 -20.4140625 8.09375 C-20.45470082 6.42757885 -20.4567835 4.75986905 -20.4140625 3.09375 C-13.74157144 -0.86031878 -7.57172087 -2.84245832 0 0 Z " fill="#1D1D1B" transform="translate(546.4140625,111.90625)"/>
<path d="M0 0 C1 1 1 1 1.25 3.375 C1 6 1 6 -0.3125 7.75 C-3.90847358 10.41368413 -7.5576064 10.19523391 -11.875 10.25 C-13.08929688 10.27578125 -14.30359375 10.3015625 -15.5546875 10.328125 C-19.52048261 9.95043023 -22.16462352 8.83537648 -25 6 C-25.375 3.625 -25.375 3.625 -25 1 C-17.06879544 -5.00199264 -8.56889418 -3.82539919 0 0 Z " fill="#1D1D1B" transform="translate(410,114)"/>
<path d="M0 0 C1 1 1 1 1.25 3.375 C1 6 1 6 -0.3125 7.75 C-3.90847358 10.41368413 -7.5576064 10.19523391 -11.875 10.25 C-13.08929688 10.27578125 -14.30359375 10.3015625 -15.5546875 10.328125 C-19.52048261 9.95043023 -22.16462352 8.83537648 -25 6 C-25.375 3.625 -25.375 3.625 -25 1 C-17.06879544 -5.00199264 -8.56889418 -3.82539919 0 0 Z " fill="#1D1D1B" transform="translate(363,114)"/>
<path d="M0 0 C1 1 1 1 1.25 3.375 C1 6 1 6 -0.3125 7.75 C-3.90847358 10.41368413 -7.5576064 10.19523391 -11.875 10.25 C-13.08929688 10.27578125 -14.30359375 10.3015625 -15.5546875 10.328125 C-19.52048261 9.95043023 -22.16462352 8.83537648 -25 6 C-25.375 3.625 -25.375 3.625 -25 1 C-17.06879544 -5.00199264 -8.56889418 -3.82539919 0 0 Z " fill="#1D1D1B" transform="translate(316,114)"/>
<path d="M0 0 C1.90780134 0.94378865 3.75482097 2.00864391 5.5859375 3.09375 C5.95179116 7.60594512 5.95179116 7.60594512 4.2734375 9.84375 C0.67746392 12.50743413 -2.9716689 12.28898391 -7.2890625 12.34375 C-8.50335937 12.36953125 -9.71765625 12.3953125 -10.96875 12.421875 C-14.93454511 12.04418023 -17.57868602 10.92912648 -20.4140625 8.09375 C-20.45470082 6.42757885 -20.4567835 4.75986905 -20.4140625 3.09375 C-13.74157144 -0.86031878 -7.57172087 -2.84245832 0 0 Z " fill="#1D1D1B" transform="translate(640.4140625,91.90625)"/>
<path d="M0 0 C5 1 5 1 6.80078125 3.06640625 C7.29964844 3.89011719 7.79851562 4.71382812 8.3125 5.5625 C8.82425781 6.38878906 9.33601563 7.21507812 9.86328125 8.06640625 C10.23839844 8.70449219 10.61351562 9.34257812 11 10 C11.33 6.7 11.66 3.4 12 0 C12.99 0 13.98 0 15 0 C15 5.61 15 11.22 15 17 C13.68 17 12.36 17 11 17 C9.296875 15.03125 9.296875 15.03125 7.75 12.5 C7.22921875 11.6646875 6.7084375 10.829375 6.171875 9.96875 C5.59179688 8.99421875 5.59179688 8.99421875 5 8 C4.67 10.97 4.34 13.94 4 17 C2.68 17 1.36 17 0 17 C0 11.39 0 5.78 0 0 Z " fill="#1D1D1B" transform="translate(453,156)"/>
<path d="M0 0 C1.32 0 2.64 0 4 0 C5.703125 1.96875 5.703125 1.96875 7.25 4.5 C8.03117187 5.75296875 8.03117187 5.75296875 8.828125 7.03125 C9.21484375 7.6809375 9.6015625 8.330625 10 9 C10.33 6.03 10.66 3.06 11 0 C12.32 0 13.64 0 15 0 C15 5.61 15 11.22 15 17 C10 16 10 16 8.19921875 13.93359375 C7.70035156 13.10988281 7.20148438 12.28617188 6.6875 11.4375 C6.17574219 10.61121094 5.66398437 9.78492188 5.13671875 8.93359375 C4.76160156 8.29550781 4.38648438 7.65742188 4 7 C3.67 10.3 3.34 13.6 3 17 C2.01 17 1.02 17 0 17 C0 11.39 0 5.78 0 0 Z " fill="#1D1D1B" transform="translate(345,156)"/>
<path d="M0 0 C5 1 5 1 6.80078125 3.06640625 C7.29964844 3.89011719 7.79851562 4.71382812 8.3125 5.5625 C8.82425781 6.38878906 9.33601562 7.21507812 9.86328125 8.06640625 C10.23839844 8.70449219 10.61351562 9.34257812 11 10 C11.33 6.7 11.66 3.4 12 0 C12.99 0 13.98 0 15 0 C15 5.61 15 11.22 15 17 C13.68 17 12.36 17 11 17 C9.296875 15.03125 9.296875 15.03125 7.75 12.5 C7.22921875 11.6646875 6.7084375 10.829375 6.171875 9.96875 C5.59179688 8.99421875 5.59179688 8.99421875 5 8 C4.67 10.97 4.34 13.94 4 17 C2.68 17 1.36 17 0 17 C0 11.39 0 5.78 0 0 Z " fill="#1D1D1B" transform="translate(234,156)"/>
<path d="M0 0 C11.46623672 -0.3698786 11.46623672 -0.3698786 13.83203125 1.26953125 C15.82699678 4.22528286 16.13573585 7.51837546 16 11 C14.86225672 13.43063337 13.88186104 15.11813896 12 17 C7.99779347 17.14355117 4.00558317 17.04216403 0 17 C0 11.39 0 5.78 0 0 Z M4 2 C4 6.29 4 10.58 4 15 C8.77602177 14.86502676 8.77602177 14.86502676 12.5 12.3125 C13.16850561 9.22066157 12.85763141 7.03469577 12 4 C8.90754997 1.53774984 8.90754997 1.53774984 4 2 Z " fill="#1D1D1B" transform="translate(477,156)"/>
<path d="M0 0 C9.9609375 -0.1953125 9.9609375 -0.1953125 13 0 C13.66 0.66 14.32 1.32 15 2 C14.625 4.625 14.625 4.625 14 7 C13.01 7.33 12.02 7.66 11 8 C12.65 10.64 14.3 13.28 16 16 C14.68 16.33 13.36 16.66 12 17 C11.68546875 16.50628906 11.3709375 16.01257813 11.046875 15.50390625 C10.61890625 14.86324219 10.1909375 14.22257813 9.75 13.5625 C9.33234375 12.92441406 8.9146875 12.28632813 8.484375 11.62890625 C6.72751123 9.70097943 5.53910197 9.38520564 3 9 C3 11.64 3 14.28 3 17 C2.01 17 1.02 17 0 17 C0 11.39 0 5.78 0 0 Z M3 2 C3 3.65 3 5.3 3 7 C6.41642759 7.25015873 6.41642759 7.25015873 10 7 C10.66 6.01 11.32 5.02 12 4 C10.04366025 1.58878141 10.04366025 1.58878141 6.375 1.875 C4.704375 1.936875 4.704375 1.936875 3 2 Z " fill="#1D1D1B" transform="translate(308,156)"/>
<path d="M0 0 C2.5 2 2.5 2 4 4 C3.67 4.66 3.34 5.32 3 6 C2.443125 5.690625 1.88625 5.38125 1.3125 5.0625 C-1.20907102 3.90394034 -3.22716229 3.21329521 -6 3 C-8.03882095 3.87129307 -8.03882095 3.87129307 -9 6 C-8.76522801 9.64541845 -8.76522801 9.64541845 -8 13 C-3.89776415 14.01540112 -3.89776415 14.01540112 0 13 C0.33 12.01 0.66 11.02 1 10 C-0.65 10 -2.3 10 -4 10 C-4 9.34 -4 8.68 -4 8 C-1.36 8 1.28 8 4 8 C4.1875 11.375 4.1875 11.375 4 15 C-0.02582582 17.68388388 -3.27084796 17.79509386 -8 17 C-11.0625 14.9375 -11.0625 14.9375 -13 12 C-13.7878128 7.5882483 -13.52975133 5.77807226 -11 2.0625 C-6.84919686 -0.79117716 -4.9698922 -0.7099846 0 0 Z " fill="#1D1D1B" transform="translate(381,156)"/>
<path d="M0 0 C0.99 0 1.98 0 3 0 C3 2.31 3 4.62 3 7 C5.64 7 8.28 7 11 7 C11 4.69 11 2.38 11 0 C12.32 0 13.64 0 15 0 C15 5.61 15 11.22 15 17 C13.68 17 12.36 17 11 17 C11 14.36 11 11.72 11 9 C8.36 9 5.72 9 3 9 C3 11.64 3 14.28 3 17 C2.01 17 1.02 17 0 17 C0 11.39 0 5.78 0 0 Z " fill="#1D1D1B" transform="translate(407,156)"/>
<path d="M0 0 C1.32 0 2.64 0 4 0 C4 2.31 4 4.62 4 7 C6.64 7 9.28 7 12 7 C12 4.69 12 2.38 12 0 C12.99 0 13.98 0 15 0 C15 5.61 15 11.22 15 17 C14.01 17 13.02 17 12 17 C12 14.36 12 11.72 12 9 C9.36 9 6.72 9 4 9 C4 11.64 4 14.28 4 17 C2.68 17 1.36 17 0 17 C0 11.39 0 5.78 0 0 Z " fill="#1D1D1B" transform="translate(185,156)"/>
<path d="M0 0 C2 1.375 2 1.375 3 3 C3 3.66 3 4.32 3 5 C2.443125 4.855625 1.88625 4.71125 1.3125 4.5625 C-1.11384195 3.97230872 -3.54906345 3.476571 -6 3 C-6.33 3.99 -6.66 4.98 -7 6 C-6.37351562 6.08636719 -5.74703125 6.17273438 -5.1015625 6.26171875 C1.5634981 7.40760456 1.5634981 7.40760456 3.75 10.375 C4 13 4 13 3.1875 15.3125 C0.18130794 17.63156245 -2.13742452 17.39770959 -5.84375 17.3359375 C-8 17 -8 17 -11 15 C-11 14.01 -11 13.02 -11 12 C-10.2265625 12.2165625 -10.2265625 12.2165625 -9.4375 12.4375 C-6.31490429 13.15809901 -3.17449308 13.57266439 0 14 C-0.33 13.01 -0.66 12.02 -1 11 C-2.80077673 10.0534089 -2.80077673 10.0534089 -4.9375 9.4375 C-7.72850228 8.54093484 -8.87774645 8.12225355 -11 6 C-10.75 3.4375 -10.75 3.4375 -10 1 C-6.82417369 -0.58791315 -3.45838847 -0.41019741 0 0 Z " fill="#1D1D1B" transform="translate(512,156)"/>
<path d="M0 0 C2.78712003 1.92954463 3.73691052 3.26710787 4.875 6.4375 C5.06018697 10.23383288 3.84359527 12.64087428 1.875 15.8125 C-1.25982035 17.79788622 -4.47989607 17.71908738 -8 17 C-11 14.9375 -11 14.9375 -13 12 C-13.7878128 7.5882483 -13.52975133 5.77807226 -11 2.0625 C-6.84919686 -0.79117716 -4.9698922 -0.7099846 0 0 Z M-8.25 3.5625 C-10.36102774 5.99081768 -10.36102774 5.99081768 -9.9375 9.625 C-9.3249155 13.25516924 -9.3249155 13.25516924 -6 15 C-2.67759676 14.6758631 -1.39223697 14.39223697 1 12 C1.50007794 8.54213985 1.50007794 8.54213985 1 5 C-0.69164222 2.95970404 -0.69164222 2.95970404 -3 2 C-6.04586933 1.7148021 -6.04586933 1.7148021 -8.25 3.5625 Z " fill="#1D1D1B" transform="translate(271,156)"/>
<path d="M0 0 C2.78712003 1.92954463 3.73691052 3.26710787 4.875 6.4375 C5.06018697 10.23383288 3.84359527 12.64087428 1.875 15.8125 C-1.25982035 17.79788622 -4.47989607 17.71908738 -8 17 C-11 14.9375 -11 14.9375 -13 12 C-13.7878128 7.5882483 -13.52975133 5.77807226 -11 2.0625 C-6.84919686 -0.79117716 -4.9698922 -0.7099846 0 0 Z M-8.25 3.5625 C-10.36102774 5.99081768 -10.36102774 5.99081768 -9.9375 9.625 C-9.3249155 13.25516924 -9.3249155 13.25516924 -6 15 C-2.67759676 14.6758631 -1.39223697 14.39223697 1 12 C1.50007794 8.54213985 1.50007794 8.54213985 1 5 C-0.69164222 2.95970404 -0.69164222 2.95970404 -3 2 C-6.04586933 1.7148021 -6.04586933 1.7148021 -8.25 3.5625 Z " fill="#1D1D1B" transform="translate(222,156)"/>
<path d="M0 0 C0.99 0 1.98 0 3 0 C3.33 4.29 3.66 8.58 4 13 C6.31 13.33 8.62 13.66 11 14 C11 9.38 11 4.76 11 0 C12.32 0 13.64 0 15 0 C15.08160748 1.89510699 15.13946459 3.79124504 15.1875 5.6875 C15.22230469 6.74324219 15.25710938 7.79898438 15.29296875 8.88671875 C14.95854223 12.44055787 14.27328526 14.25499551 12 17 C9.84375 17.59375 9.84375 17.59375 7.5 17.5 C6.7265625 17.4896875 5.953125 17.479375 5.15625 17.46875 C3 17 3 17 1.23046875 15.91796875 C-0.67919434 12.9413193 -0.28335445 10.29521182 -0.1875 6.8125 C-0.16042969 5.54019531 -0.13335937 4.26789063 -0.10546875 2.95703125 C-0.07066406 1.98121094 -0.03585937 1.00539062 0 0 Z " fill="#1D1D1B" transform="translate(284,156)"/>
<path d="M0 0 C1.65 0 3.3 0 5 0 C6.00419637 2.4566947 7.00350501 4.91518353 8 7.375 C8.28617187 8.07367188 8.57234375 8.77234375 8.8671875 9.4921875 C11 14.7734375 11 14.7734375 11 17 C9.68 16.67 8.36 16.34 7 16 C6.67 14.68 6.34 13.36 6 12 C3.69 12 1.38 12 -1 12 C-1.33 13.65 -1.66 15.3 -2 17 C-3.32 16.67 -4.64 16.34 -6 16 C-4.02 10.72 -2.04 5.44 0 0 Z M2 4 C1.34 5.98 0.68 7.96 0 10 C1.65 10 3.3 10 5 10 C4.34 8.02 3.68 6.04 3 4 C2.67 4 2.34 4 2 4 Z " fill="#1D1D1B" transform="translate(435,156)"/>
<path d="M0 0 C1.32 0 2.64 0 4 0 C4 5.61 4 11.22 4 17 C2.68 17 1.36 17 0 17 C0 11.39 0 5.78 0 0 Z " fill="#1D1D1B" transform="translate(332,156)"/>
<path d="M0 0 C1.98 0.495 1.98 0.495 4 1 C4 2.32 4 3.64 4 5 C2.35 4.67 0.7 4.34 -1 4 C-0.67 2.68 -0.34 1.36 0 0 Z " fill="#1D1D1B" transform="translate(321,115)"/>
<path d="M0 0 C1.98 0.495 1.98 0.495 4 1 C4 2.32 4 3.64 4 5 C2.35 4.67 0.7 4.34 -1 4 C-0.67 2.68 -0.34 1.36 0 0 Z " fill="#1D1D1B" transform="translate(274,115)"/>
<path d="M0 0 C1.98 0.495 1.98 0.495 4 1 C3.67 2.32 3.34 3.64 3 5 C1.68 5 0.36 5 -1 5 C-0.67 3.35 -0.34 1.7 0 0 Z " fill="#1D1D1B" transform="translate(227,115)"/>
<path d="M0 0 C1.98 0.495 1.98 0.495 4 1 C3.67 2.32 3.34 3.64 3 5 C1.68 5 0.36 5 -1 5 C-0.67 3.35 -0.34 1.7 0 0 Z " fill="#1D1D1B" transform="translate(180,115)"/>
<path d="M0 0 C1.98 0.495 1.98 0.495 4 1 C4 2.32 4 3.64 4 5 C2.35 4.67 0.7 4.34 -1 4 C-0.67 2.68 -0.34 1.36 0 0 Z " fill="#1D1D1B" transform="translate(142,115)"/>
<path d="M0 0 C1.98 0.495 1.98 0.495 4 1 C3.67 2.32 3.34 3.64 3 5 C1.68 5 0.36 5 -1 5 C-0.67 3.35 -0.34 1.7 0 0 Z " fill="#1D1D1B" transform="translate(133,115)"/>
<path d="M0 0 C1.98 0.495 1.98 0.495 4 1 C4 2.32 4 3.64 4 5 C2.35 4.67 0.7 4.34 -1 4 C-0.67 2.68 -0.34 1.36 0 0 Z " fill="#1D1D1B" transform="translate(95,115)"/>
<path d="M0 0 C1.98 0.495 1.98 0.495 4 1 C3.67 2.32 3.34 3.64 3 5 C1.68 5 0.36 5 -1 5 C-0.67 3.35 -0.34 1.7 0 0 Z " fill="#1D1D1B" transform="translate(86,115)"/>
<path d="M0 0 C1.98 0.495 1.98 0.495 4 1 C4 2.32 4 3.64 4 5 C2.35 4.67 0.7 4.34 -1 4 C-0.67 2.68 -0.34 1.36 0 0 Z " fill="#1D1D1B" transform="translate(48,115)"/>
<path d="M0 0 C1.98 0.495 1.98 0.495 4 1 C3.67 2.32 3.34 3.64 3 5 C1.68 5 0.36 5 -1 5 C-0.67 3.35 -0.34 1.7 0 0 Z " fill="#1D1D1B" transform="translate(39,115)"/>
<path d="M0 0 C1.98 0.495 1.98 0.495 4 1 C4 2.32 4 3.64 4 5 C2.35 4.67 0.7 4.34 -1 4 C-0.67 2.68 -0.34 1.36 0 0 Z " fill="#1D1D1B" transform="translate(1,115)"/>
<path d="M0 0 C1.98 0.495 1.98 0.495 4 1 C4 2.32 4 3.64 4 5 C2.35 4.67 0.7 4.34 -1 4 C-0.67 2.68 -0.34 1.36 0 0 Z " fill="#1D1D1B" transform="translate(462,95)"/>
<path d="M0 0 C1.98 0.495 1.98 0.495 4 1 C4 2.32 4 3.64 4 5 C2.35 4.67 0.7 4.34 -1 4 C-0.67 2.68 -0.34 1.36 0 0 Z " fill="#1D1D1B" transform="translate(415,95)"/>
<path d="M0 0 C1.98 0.495 1.98 0.495 4 1 C4 2.32 4 3.64 4 5 C2.35 4.67 0.7 4.34 -1 4 C-0.67 2.68 -0.34 1.36 0 0 Z " fill="#1D1D1B" transform="translate(368,95)"/>
<path d="M0 0 C1.98 0.495 1.98 0.495 4 1 C4 2.32 4 3.64 4 5 C2.35 4.67 0.7 4.34 -1 4 C-0.67 2.68 -0.34 1.36 0 0 Z " fill="#1D1D1B" transform="translate(321,95)"/>
<path d="M0 0 C1.98 0.495 1.98 0.495 4 1 C4 2.32 4 3.64 4 5 C2.35 4.67 0.7 4.34 -1 4 C-0.67 2.68 -0.34 1.36 0 0 Z " fill="#1D1D1B" transform="translate(274,95)"/>
<path d="M0 0 C1.98 0.495 1.98 0.495 4 1 C3.67 2.32 3.34 3.64 3 5 C1.68 5 0.36 5 -1 5 C-0.67 3.35 -0.34 1.7 0 0 Z " fill="#1D1D1B" transform="translate(227,95)"/>
<path d="M0 0 C1.98 0.495 1.98 0.495 4 1 C4 2.32 4 3.64 4 5 C2.35 4.67 0.7 4.34 -1 4 C-0.67 2.68 -0.34 1.36 0 0 Z " fill="#1D1D1B" transform="translate(189,95)"/>
<path d="M0 0 C1.98 0.495 1.98 0.495 4 1 C3.67 2.32 3.34 3.64 3 5 C1.68 5 0.36 5 -1 5 C-0.67 3.35 -0.34 1.7 0 0 Z " fill="#1D1D1B" transform="translate(180,95)"/>
<path d="M0 0 C1.98 0.495 1.98 0.495 4 1 C4 2.32 4 3.64 4 5 C2.35 4.67 0.7 4.34 -1 4 C-0.67 2.68 -0.34 1.36 0 0 Z " fill="#1D1D1B" transform="translate(142,95)"/>
<path d="M0 0 C1.98 0.495 1.98 0.495 4 1 C3.67 2.32 3.34 3.64 3 5 C1.68 5 0.36 5 -1 5 C-0.67 3.35 -0.34 1.7 0 0 Z " fill="#1D1D1B" transform="translate(133,95)"/>
<path d="M0 0 C1.98 0.495 1.98 0.495 4 1 C4 2.32 4 3.64 4 5 C2.35 4.67 0.7 4.34 -1 4 C-0.67 2.68 -0.34 1.36 0 0 Z " fill="#1D1D1B" transform="translate(95,95)"/>
<path d="M0 0 C1.98 0.495 1.98 0.495 4 1 C3.67 2.32 3.34 3.64 3 5 C1.68 5 0.36 5 -1 5 C-0.67 3.35 -0.34 1.7 0 0 Z " fill="#1D1D1B" transform="translate(86,95)"/>
<path d="M0 0 C1.98 0.495 1.98 0.495 4 1 C4 2.32 4 3.64 4 5 C2.35 4.67 0.7 4.34 -1 4 C-0.67 2.68 -0.34 1.36 0 0 Z " fill="#1D1D1B" transform="translate(48,95)"/>
<path d="M0 0 C1.98 0.495 1.98 0.495 4 1 C3.67 2.32 3.34 3.64 3 5 C1.68 5 0.36 5 -1 5 C-0.67 3.35 -0.34 1.7 0 0 Z " fill="#1D1D1B" transform="translate(39,95)"/>
<path d="M0 0 C1.98 0.495 1.98 0.495 4 1 C4 2.32 4 3.64 4 5 C2.35 4.67 0.7 4.34 -1 4 C-0.67 2.68 -0.34 1.36 0 0 Z " fill="#1D1D1B" transform="translate(1,95)"/>
<path d="M0 0 C0.99 0.33 1.98 0.66 3 1 C3 2.32 3 3.64 3 5 C1.35 4.67 -0.3 4.34 -2 4 C-2 3.01 -2 2.02 -2 1 C-1.34 0.67 -0.68 0.34 0 0 Z " fill="#1D1D1B" transform="translate(604,115)"/>
<path d="M0 0 C0.99 0.33 1.98 0.66 3 1 C3 2.32 3 3.64 3 5 C1.35 4.67 -0.3 4.34 -2 4 C-2 3.01 -2 2.02 -2 1 C-1.34 0.67 -0.68 0.34 0 0 Z " fill="#1D1D1B" transform="translate(557,115)"/>
<path d="M0 0 C0.99 0.33 1.98 0.66 3 1 C3 2.32 3 3.64 3 5 C1.35 4.67 -0.3 4.34 -2 4 C-2 3.01 -2 2.02 -2 1 C-1.34 0.67 -0.68 0.34 0 0 Z " fill="#1D1D1B" transform="translate(510,115)"/>
<path d="M0 0 C0.99 0.33 1.98 0.66 3 1 C3 2.32 3 3.64 3 5 C1.35 4.67 -0.3 4.34 -2 4 C-2 3.01 -2 2.02 -2 1 C-1.34 0.67 -0.68 0.34 0 0 Z " fill="#1D1D1B" transform="translate(463,115)"/>
<path d="M0 0 C0.99 0.33 1.98 0.66 3 1 C3 2.32 3 3.64 3 5 C1.35 4.67 -0.3 4.34 -2 4 C-2 3.01 -2 2.02 -2 1 C-1.34 0.67 -0.68 0.34 0 0 Z " fill="#1D1D1B" transform="translate(416,115)"/>
<path d="M0 0 C0.99 0.33 1.98 0.66 3 1 C3 2.32 3 3.64 3 5 C1.35 4.67 -0.3 4.34 -2 4 C-2 3.01 -2 2.02 -2 1 C-1.34 0.67 -0.68 0.34 0 0 Z " fill="#1D1D1B" transform="translate(369,115)"/>
<path d="M0 0 C0.99 0.33 1.98 0.66 3 1 C3 2.32 3 3.64 3 5 C1.35 4.67 -0.3 4.34 -2 4 C-2 3.01 -2 2.02 -2 1 C-1.34 0.67 -0.68 0.34 0 0 Z " fill="#1D1D1B" transform="translate(190,115)"/>
<path d="M0 0 C0.99 0.33 1.98 0.66 3 1 C3 2.32 3 3.64 3 5 C1.35 4.67 -0.3 4.34 -2 4 C-2 3.01 -2 2.02 -2 1 C-1.34 0.67 -0.68 0.34 0 0 Z " fill="#1D1D1B" transform="translate(604,95)"/>
<path d="M0 0 C0.99 0.33 1.98 0.66 3 1 C3 2.32 3 3.64 3 5 C1.35 4.67 -0.3 4.34 -2 4 C-2 3.01 -2 2.02 -2 1 C-1.34 0.67 -0.68 0.34 0 0 Z " fill="#1D1D1B" transform="translate(557,95)"/>
<path d="M0 0 C0.99 0.33 1.98 0.66 3 1 C3 2.32 3 3.64 3 5 C1.35 4.67 -0.3 4.34 -2 4 C-2 3.01 -2 2.02 -2 1 C-1.34 0.67 -0.68 0.34 0 0 Z " fill="#1D1D1B" transform="translate(510,95)"/>
<path d="M0 0 C0.99 0.33 1.98 0.66 3 1 C3 2.32 3 3.64 3 5 C1.35 4.67 -0.3 4.34 -2 4 C-1.34 2.68 -0.68 1.36 0 0 Z " fill="#1D1D1B" transform="translate(698,115)"/>
<path d="M0 0 C0.99 0.33 1.98 0.66 3 1 C3 2.32 3 3.64 3 5 C1.35 4.67 -0.3 4.34 -2 4 C-1.34 2.68 -0.68 1.36 0 0 Z " fill="#1D1D1B" transform="translate(651,115)"/>
<path d="M0 0 C0.99 0.33 1.98 0.66 3 1 C3 2.32 3 3.64 3 5 C1.35 4.67 -0.3 4.34 -2 4 C-1.34 2.68 -0.68 1.36 0 0 Z " fill="#1D1D1B" transform="translate(284,115)"/>
<path d="M0 0 C0.99 0.33 1.98 0.66 3 1 C3 2.32 3 3.64 3 5 C1.35 4.67 -0.3 4.34 -2 4 C-1.34 2.68 -0.68 1.36 0 0 Z " fill="#1D1D1B" transform="translate(237,115)"/>
<path d="M0 0 C0.99 0.33 1.98 0.66 3 1 C3 2.32 3 3.64 3 5 C1.35 4.67 -0.3 4.34 -2 4 C-1.34 2.68 -0.68 1.36 0 0 Z " fill="#1D1D1B" transform="translate(698,95)"/>
<path d="M0 0 C0.99 0.33 1.98 0.66 3 1 C3 2.32 3 3.64 3 5 C1.35 4.67 -0.3 4.34 -2 4 C-1.34 2.68 -0.68 1.36 0 0 Z " fill="#1D1D1B" transform="translate(651,95)"/>
<path d="M0 0 C0.99 0.33 1.98 0.66 3 1 C3 2.32 3 3.64 3 5 C1.35 4.67 -0.3 4.34 -2 4 C-1.34 2.68 -0.68 1.36 0 0 Z " fill="#1D1D1B" transform="translate(284,95)"/>
<path d="M0 0 C0.99 0.33 1.98 0.66 3 1 C3 2.32 3 3.64 3 5 C1.35 4.67 -0.3 4.34 -2 4 C-1.34 2.68 -0.68 1.36 0 0 Z " fill="#1D1D1B" transform="translate(237,95)"/>
<path d="M0 0 C0.99 0.33 1.98 0.66 3 1 C3 2.32 3 3.64 3 5 C1.68 5 0.36 5 -1 5 C-1.33 4.01 -1.66 3.02 -2 2 C-1.34 1.34 -0.68 0.68 0 0 Z " fill="#1D1D1B" transform="translate(331,115)"/>
<path d="M0 0 C0.99 0.33 1.98 0.66 3 1 C3 2.32 3 3.64 3 5 C1.68 5 0.36 5 -1 5 C-1.33 4.01 -1.66 3.02 -2 2 C-1.34 1.34 -0.68 0.68 0 0 Z " fill="#1D1D1B" transform="translate(331,95)"/>
<path d="M0 0 C0.99 0.33 1.98 0.66 3 1 C3 2.32 3 3.64 3 5 C1.68 5 0.36 5 -1 5 C-0.67 3.35 -0.34 1.7 0 0 Z " fill="#1D1D1B" transform="translate(660,115)"/>
<path d="M0 0 C0.99 0.33 1.98 0.66 3 1 C3 2.32 3 3.64 3 5 C1.68 5 0.36 5 -1 5 C-0.67 3.35 -0.34 1.7 0 0 Z " fill="#1D1D1B" transform="translate(613,115)"/>
<path d="M0 0 C0.99 0.33 1.98 0.66 3 1 C3 2.32 3 3.64 3 5 C1.68 5 0.36 5 -1 5 C-0.67 3.35 -0.34 1.7 0 0 Z " fill="#1D1D1B" transform="translate(566,115)"/>
<path d="M0 0 C0.99 0.33 1.98 0.66 3 1 C3 2.32 3 3.64 3 5 C1.68 5 0.36 5 -1 5 C-0.67 3.35 -0.34 1.7 0 0 Z " fill="#1D1D1B" transform="translate(519,115)"/>
<path d="M0 0 C0.99 0.33 1.98 0.66 3 1 C3 2.32 3 3.64 3 5 C1.68 5 0.36 5 -1 5 C-0.67 3.35 -0.34 1.7 0 0 Z " fill="#1D1D1B" transform="translate(472,115)"/>
<path d="M0 0 C0.99 0.33 1.98 0.66 3 1 C3 2.32 3 3.64 3 5 C1.68 5 0.36 5 -1 5 C-0.67 3.35 -0.34 1.7 0 0 Z " fill="#1D1D1B" transform="translate(425,115)"/>
<path d="M0 0 C0.99 0.33 1.98 0.66 3 1 C3 2.32 3 3.64 3 5 C1.68 5 0.36 5 -1 5 C-0.67 3.35 -0.34 1.7 0 0 Z " fill="#1D1D1B" transform="translate(378,115)"/>
<path d="M0 0 C0.99 0.33 1.98 0.66 3 1 C3 2.32 3 3.64 3 5 C1.68 5 0.36 5 -1 5 C-0.67 3.35 -0.34 1.7 0 0 Z " fill="#1D1D1B" transform="translate(660,95)"/>
<path d="M0 0 C0.99 0.33 1.98 0.66 3 1 C3 2.32 3 3.64 3 5 C1.68 5 0.36 5 -1 5 C-0.67 3.35 -0.34 1.7 0 0 Z " fill="#1D1D1B" transform="translate(613,95)"/>
<path d="M0 0 C0.99 0.33 1.98 0.66 3 1 C3 2.32 3 3.64 3 5 C1.68 5 0.36 5 -1 5 C-0.67 3.35 -0.34 1.7 0 0 Z " fill="#1D1D1B" transform="translate(566,95)"/>
<path d="M0 0 C0.99 0.33 1.98 0.66 3 1 C3 2.32 3 3.64 3 5 C1.68 5 0.36 5 -1 5 C-0.67 3.35 -0.34 1.7 0 0 Z " fill="#1D1D1B" transform="translate(519,95)"/>
<path d="M0 0 C0.99 0.33 1.98 0.66 3 1 C3 2.32 3 3.64 3 5 C1.68 5 0.36 5 -1 5 C-0.67 3.35 -0.34 1.7 0 0 Z " fill="#1D1D1B" transform="translate(472,95)"/>
<path d="M0 0 C0.99 0.33 1.98 0.66 3 1 C3 2.32 3 3.64 3 5 C1.68 5 0.36 5 -1 5 C-0.67 3.35 -0.34 1.7 0 0 Z " fill="#1D1D1B" transform="translate(425,95)"/>
<path d="M0 0 C0.99 0.33 1.98 0.66 3 1 C3 2.32 3 3.64 3 5 C1.68 5 0.36 5 -1 5 C-0.67 3.35 -0.34 1.7 0 0 Z " fill="#1D1D1B" transform="translate(378,95)"/>
</svg>
