<?xml version="1.0" standalone="no"?>
<!DOCTYPE svg PUBLIC "-//W3C//DTD SVG 20010904//EN"
 "http://www.w3.org/TR/2001/REC-SVG-20010904/DTD/svg10.dtd">
<svg version="1.0" xmlns="http://www.w3.org/2000/svg"
 width="701.000000pt" height="174.000000pt" viewBox="0 0 701.000000 174.000000"
 preserveAspectRatio="xMidYMid meet">

<g transform="translate(0.000000,174.000000) scale(0.100000,-0.100000)"
fill="#000000" stroke="none">
<path d="M2827 1729 c-83 -19 -141 -72 -185 -167 -22 -48 -24 -63 -20 -155 3
-85 8 -110 30 -152 52 -99 124 -145 228 -145 129 0 224 95 249 248 36 222
-120 413 -302 371z m121 -39 c20 -13 42 -39 55 -68 19 -42 22 -64 22 -202 0
-142 -2 -159 -23 -202 -26 -53 -59 -78 -112 -85 -44 -6 -102 18 -124 51 -57
88 -63 340 -9 453 32 69 123 94 191 53z"/>
<path d="M3430 1731 c-78 -16 -143 -72 -182 -156 -19 -42 -23 -67 -23 -155 0
-88 4 -113 23 -155 48 -104 123 -154 230 -155 194 0 311 216 236 440 -42 130
-163 206 -284 181z m140 -57 c45 -45 63 -130 58 -283 -6 -194 -44 -257 -155
-255 -62 0 -95 24 -125 91 -39 87 -32 326 12 412 27 54 62 72 128 68 43 -3 59
-9 82 -33z"/>
<path d="M5581 1718 c-4 -13 -49 -146 -101 -295 l-92 -273 -39 0 c-28 0 -39
-4 -39 -15 0 -12 17 -15 90 -15 73 0 90 3 90 15 0 10 -10 15 -34 15 l-34 0 31
95 32 96 84 -3 84 -3 27 -90 28 -90 -34 -3 c-22 -2 -34 -9 -34 -18 0 -11 22
-14 115 -14 93 0 115 3 115 14 0 9 -12 16 -32 18 l-32 3 -95 293 c-94 289
-110 323 -130 270z m22 -226 c14 -49 29 -96 33 -105 5 -15 -3 -17 -69 -17
l-76 0 37 105 c20 58 40 105 43 105 3 0 17 -40 32 -88z"/>
<path d="M6120 1731 c-78 -16 -140 -69 -187 -161 -25 -50 -28 -65 -28 -155 0
-83 4 -109 23 -150 49 -108 122 -155 242 -155 88 0 142 21 183 69 24 29 47 86
47 119 0 6 11 12 25 12 16 0 25 6 25 15 0 13 -20 15 -120 15 -100 0 -120 -2
-120 -15 0 -11 11 -15 40 -15 l40 0 0 -45 c0 -61 -21 -98 -66 -120 -72 -34
-151 -4 -189 71 -17 34 -20 59 -20 194 0 145 2 158 25 205 43 87 124 118 207
79 39 -19 78 -66 88 -106 13 -53 25 -28 25 52 0 44 -2 80 -4 80 -3 0 -11 -7
-20 -15 -14 -14 -19 -14 -53 3 -45 23 -115 33 -163 23z"/>
<path d="M6725 1728 c-3 -7 -49 -139 -103 -293 l-98 -280 -37 -3 c-24 -2 -37
-8 -37 -18 0 -11 18 -14 90 -14 73 0 90 3 90 15 0 11 -11 15 -36 15 -25 0 -35
4 -32 13 3 6 17 49 32 95 l28 82 82 0 82 0 31 -95 31 -95 -34 0 c-24 0 -34 -5
-34 -15 0 -12 19 -15 115 -15 96 0 115 3 115 15 0 10 -10 15 -33 15 l-33 0
-89 278 c-49 152 -92 285 -97 295 -10 20 -27 22 -33 5z m8 -205 c9 -32 23 -79
31 -105 l15 -48 -74 0 -74 0 36 105 c20 58 39 105 43 105 4 0 14 -26 23 -57z"/>
<path d="M10 1710 c0 -5 13 -10 30 -10 l30 0 0 -275 0 -275 -30 0 c-20 0 -30
-5 -30 -15 0 -12 19 -15 115 -15 96 0 115 3 115 15 0 10 -11 15 -35 15 l-35 0
0 135 0 135 125 0 125 0 0 -135 0 -135 -30 0 c-20 0 -30 -5 -30 -15 0 -12 19
-15 115 -15 96 0 115 3 115 15 0 10 -11 15 -35 15 l-35 0 0 275 0 275 35 0
c19 0 35 5 35 10 0 6 -45 10 -115 10 -70 0 -115 -4 -115 -10 0 -5 14 -10 30
-10 l30 0 0 -130 0 -130 -125 0 -125 0 0 130 0 130 35 0 c19 0 35 5 35 10 0 6
-45 10 -115 10 -70 0 -115 -4 -115 -10z"/>
<path d="M660 1710 c0 -5 16 -10 35 -10 l35 0 0 -275 0 -275 -35 0 c-24 0 -35
-5 -35 -15 0 -13 32 -15 229 -15 l228 0 7 61 c9 92 8 121 -6 117 -7 -3 -16
-19 -21 -37 -24 -94 -70 -117 -229 -112 l-48 1 0 135 0 135 24 0 c48 0 77 -19
93 -60 9 -22 20 -40 25 -40 4 0 8 50 8 110 0 105 -11 143 -26 85 -9 -35 -50
-65 -90 -65 l-34 0 0 125 0 125 73 0 c100 0 144 -14 167 -53 11 -18 20 -40 20
-49 0 -10 7 -18 15 -18 12 0 15 14 15 70 l0 70 -225 0 c-143 0 -225 -4 -225
-10z"/>
<path d="M1200 1710 c0 -5 16 -10 35 -10 l35 0 0 -275 0 -275 -35 0 c-24 0
-35 -5 -35 -15 0 -12 20 -15 120 -15 100 0 120 3 120 15 0 10 -11 15 -35 15
l-35 0 0 275 0 275 35 0 c19 0 35 5 35 10 0 6 -47 10 -120 10 -73 0 -120 -4
-120 -10z"/>
<path d="M1510 1710 c0 -5 16 -10 35 -10 l35 0 0 -275 0 -275 -35 0 c-24 0
-35 -5 -35 -15 0 -12 19 -15 115 -15 96 0 115 3 115 15 0 10 -11 15 -35 15
l-35 0 0 145 0 145 33 -1 c48 -1 98 -22 119 -50 12 -16 22 -56 28 -113 16
-135 39 -166 124 -166 53 0 76 8 76 25 0 8 -13 12 -37 11 -48 -1 -63 26 -63
115 0 85 -24 124 -100 161 -45 22 -50 27 -29 28 28 0 84 22 110 42 41 33 53
123 23 167 -35 50 -84 61 -271 61 -109 0 -173 -4 -173 -10z m309 -21 c37 -13
51 -41 51 -104 0 -92 -23 -113 -131 -122 l-69 -6 0 122 0 121 59 0 c32 0 73
-5 90 -11z"/>
<path d="M2110 1711 c0 -6 15 -11 33 -13 l32 -3 3 -272 2 -273 -40 0 c-29 0
-40 -4 -40 -15 0 -13 30 -15 228 -13 l227 3 3 83 c2 45 -1 82 -5 82 -5 0 -16
-23 -26 -50 -27 -76 -82 -101 -204 -92 l-53 4 0 274 0 274 40 0 c22 0 40 5 40
10 0 6 -47 10 -120 10 -68 0 -120 -4 -120 -9z"/>
<path d="M3820 1710 c0 -5 14 -10 30 -10 l30 0 0 -275 0 -275 -30 0 c-20 0
-30 -5 -30 -15 0 -12 16 -15 80 -15 64 0 80 3 80 15 0 10 -11 15 -35 15 l-35
0 0 273 c0 149 4 265 9 257 4 -8 43 -138 86 -287 44 -155 83 -273 90 -273 6 0
48 121 95 273 45 149 85 274 86 276 2 2 4 -113 4 -257 l0 -262 -35 0 c-24 0
-35 -5 -35 -15 0 -12 19 -15 115 -15 96 0 115 3 115 15 0 10 -11 15 -35 15
l-35 0 0 275 0 275 35 0 c19 0 35 5 35 10 0 7 -33 10 -92 8 l-92 -3 -62 -203
c-34 -112 -64 -205 -66 -207 -2 -3 -31 90 -64 205 l-59 210 -92 0 c-56 0 -93
-4 -93 -10z"/>
<path d="M4740 1710 c0 -5 16 -10 35 -10 l35 0 0 -275 0 -275 -35 0 c-24 0
-35 -5 -35 -15 0 -12 16 -15 85 -15 69 0 85 3 85 15 0 10 -11 15 -35 15 l-35
0 0 263 1 262 24 -40 c14 -22 89 -149 168 -282 78 -134 147 -243 154 -243 10
0 13 68 15 293 l3 292 33 3 c66 7 29 22 -53 22 -50 0 -85 -4 -85 -10 0 -5 16
-10 35 -10 l35 0 0 -197 0 -198 -123 207 -122 208 -92 0 c-56 0 -93 -4 -93
-10z"/>
<path d="M140 813 c-26 -10 -50 -35 -50 -54 0 -49 143 -77 210 -42 48 25 54
65 11 87 -29 16 -138 21 -171 9z"/>
<path d="M610 813 c-26 -10 -50 -35 -50 -54 0 -49 143 -77 210 -42 48 25 54
65 11 87 -29 16 -138 21 -171 9z"/>
<path d="M1071 807 c-59 -30 -52 -72 15 -95 47 -17 136 -10 170 13 34 22 32
60 -6 80 -35 18 -145 20 -179 2z"/>
<path d="M1550 813 c-26 -10 -50 -35 -50 -54 0 -49 143 -77 210 -42 48 25 54
65 11 87 -29 16 -138 21 -171 9z"/>
<path d="M2020 813 c-26 -10 -50 -35 -50 -54 0 -49 143 -77 210 -42 48 25 54
65 11 87 -29 16 -138 21 -171 9z"/>
<path d="M2473 800 c-38 -23 -41 -41 -12 -68 64 -60 259 -25 233 42 -18 47
-160 64 -221 26z"/>
<path d="M2943 800 c-38 -23 -41 -41 -12 -68 37 -35 123 -42 188 -16 41 16 54
34 44 59 -17 46 -160 62 -220 25z"/>
<path d="M3413 800 c-38 -23 -41 -41 -12 -68 37 -35 123 -42 188 -16 41 16 54
34 44 59 -17 46 -160 62 -220 25z"/>
<path d="M3883 800 c-38 -23 -41 -41 -12 -68 37 -35 123 -42 188 -16 41 16 54
34 44 59 -17 46 -160 62 -220 25z"/>
<path d="M4353 800 c-49 -30 -43 -59 20 -85 47 -19 106 -19 156 1 41 16 54 34
44 59 -17 46 -160 62 -220 25z"/>
<path d="M4823 800 c-49 -30 -43 -59 20 -85 82 -34 206 -3 207 53 0 27 -63 52
-130 52 -47 0 -74 -6 -97 -20z"/>
<path d="M5293 800 c-49 -30 -43 -59 20 -85 82 -34 206 -3 207 53 0 27 -63 52
-130 52 -47 0 -74 -6 -97 -20z"/>
<path d="M5763 800 c-49 -30 -43 -59 20 -85 82 -34 206 -3 207 53 0 27 -63 52
-130 52 -47 0 -74 -6 -97 -20z"/>
<path d="M6233 800 c-49 -30 -43 -59 20 -85 82 -34 206 -3 207 53 0 27 -63 52
-130 52 -47 0 -74 -6 -97 -20z"/>
<path d="M6703 800 c-49 -30 -43 -59 20 -85 82 -34 206 -3 207 53 0 27 -63 52
-130 52 -47 0 -74 -6 -97 -20z"/>
<path d="M12 763 c2 -10 10 -18 18 -18 22 0 18 29 -3 33 -14 3 -18 -1 -15 -15z"/>
<path d="M384 769 c-8 -14 11 -33 25 -25 16 10 13 36 -3 36 -8 0 -18 -5 -22
-11z"/>
<path d="M482 763 c4 -21 33 -25 33 -3 0 8 -8 16 -18 18 -14 3 -18 -1 -15 -15z"/>
<path d="M854 769 c-3 -6 -2 -15 4 -21 13 -13 32 -2 32 18 0 16 -26 19 -36 3z"/>
<path d="M950 766 c0 -21 21 -31 30 -15 5 7 6 17 4 21 -9 14 -34 9 -34 -6z"/>
<path d="M1324 769 c-3 -6 -2 -15 4 -21 13 -13 32 -2 32 18 0 16 -26 19 -36 3z"/>
<path d="M1422 763 c2 -10 10 -18 18 -18 22 0 18 29 -3 33 -14 3 -18 -1 -15
-15z"/>
<path d="M1794 769 c-3 -6 -2 -15 4 -21 13 -13 32 -2 32 18 0 16 -26 19 -36 3z"/>
<path d="M1892 763 c2 -10 10 -18 18 -18 22 0 18 29 -3 33 -14 3 -18 -1 -15
-15z"/>
<path d="M2267 774 c-9 -10 4 -34 19 -34 8 0 14 9 14 20 0 19 -19 27 -33 14z"/>
<path d="M2362 763 c4 -21 33 -25 33 -3 0 8 -8 16 -18 18 -14 3 -18 -1 -15
-15z"/>
<path d="M2742 763 c2 -10 10 -18 18 -18 22 0 18 29 -3 33 -14 3 -18 -1 -15
-15z"/>
<path d="M2832 763 c2 -10 10 -18 18 -18 8 0 16 8 18 18 2 12 -3 17 -18 17
-15 0 -20 -5 -18 -17z"/>
<path d="M3212 763 c2 -10 10 -18 18 -18 22 0 18 29 -3 33 -14 3 -18 -1 -15
-15z"/>
<path d="M3302 763 c2 -10 10 -18 18 -18 8 0 16 8 18 18 2 12 -3 17 -18 17
-15 0 -20 -5 -18 -17z"/>
<path d="M3682 763 c2 -10 10 -18 18 -18 22 0 18 29 -3 33 -14 3 -18 -1 -15
-15z"/>
<path d="M3772 763 c2 -10 10 -18 18 -18 8 0 16 8 18 18 2 12 -3 17 -18 17
-15 0 -20 -5 -18 -17z"/>
<path d="M4152 763 c2 -10 10 -18 18 -18 22 0 18 29 -3 33 -14 3 -18 -1 -15
-15z"/>
<path d="M4242 763 c2 -10 10 -18 18 -18 8 0 16 8 18 18 2 12 -3 17 -18 17
-15 0 -20 -5 -18 -17z"/>
<path d="M4622 763 c2 -10 10 -18 18 -18 22 0 18 29 -3 33 -14 3 -18 -1 -15
-15z"/>
<path d="M4712 763 c2 -10 10 -18 18 -18 8 0 16 8 18 18 2 12 -3 17 -18 17
-15 0 -20 -5 -18 -17z"/>
<path d="M5092 763 c4 -21 33 -25 33 -3 0 8 -8 16 -18 18 -14 3 -18 -1 -15
-15z"/>
<path d="M5182 763 c2 -10 10 -18 18 -18 8 0 16 8 18 18 2 12 -3 17 -18 17
-15 0 -20 -5 -18 -17z"/>
<path d="M5562 763 c4 -21 33 -25 33 -3 0 8 -8 16 -18 18 -14 3 -18 -1 -15
-15z"/>
<path d="M5652 763 c2 -10 10 -18 18 -18 8 0 16 8 18 18 2 12 -3 17 -18 17
-15 0 -20 -5 -18 -17z"/>
<path d="M6032 763 c2 -10 10 -18 18 -18 22 0 18 29 -3 33 -14 3 -18 -1 -15
-15z"/>
<path d="M6122 763 c2 -10 10 -18 18 -18 8 0 16 8 18 18 2 12 -3 17 -18 17
-15 0 -20 -5 -18 -17z"/>
<path d="M6502 763 c2 -10 10 -18 18 -18 22 0 18 29 -3 33 -14 3 -18 -1 -15
-15z"/>
<path d="M6592 763 c2 -10 10 -18 18 -18 8 0 16 8 18 18 2 12 -3 17 -18 17
-15 0 -20 -5 -18 -17z"/>
<path d="M6972 763 c2 -10 10 -18 18 -18 22 0 18 29 -3 33 -14 3 -18 -1 -15
-15z"/>
<path d="M131 607 c-54 -28 -53 -69 4 -92 80 -34 197 -7 203 48 3 23 -2 30
-32 42 -43 18 -142 19 -175 2z"/>
<path d="M601 607 c-54 -28 -53 -69 4 -92 80 -34 197 -7 203 48 3 23 -2 30
-32 42 -43 18 -142 19 -175 2z"/>
<path d="M1080 613 c-26 -10 -50 -35 -50 -54 0 -29 44 -51 113 -56 78 -5 130
17 135 60 3 23 -2 30 -32 42 -34 15 -135 19 -166 8z"/>
<path d="M1550 613 c-26 -10 -50 -35 -50 -54 0 -29 44 -51 113 -56 78 -5 130
17 135 60 3 23 -2 30 -32 42 -34 15 -135 19 -166 8z"/>
<path d="M2020 613 c-26 -10 -50 -35 -50 -54 0 -49 143 -77 210 -42 48 25 54
65 11 87 -29 16 -138 21 -171 9z"/>
<path d="M2473 600 c-38 -23 -41 -41 -12 -68 37 -35 123 -42 188 -16 41 16 54
34 44 59 -17 46 -160 62 -220 25z"/>
<path d="M2943 600 c-38 -23 -41 -41 -12 -68 37 -35 123 -42 188 -16 41 16 54
34 44 59 -17 46 -160 62 -220 25z"/>
<path d="M3413 600 c-38 -23 -41 -41 -12 -68 37 -35 123 -42 188 -16 41 16 54
34 44 59 -17 46 -160 62 -220 25z"/>
<path d="M3883 600 c-38 -23 -41 -41 -12 -68 37 -35 123 -42 188 -16 41 16 54
34 44 59 -17 46 -160 62 -220 25z"/>
<path d="M4353 600 c-38 -23 -41 -41 -12 -68 37 -35 123 -42 188 -16 41 16 54
34 44 59 -17 46 -160 62 -220 25z"/>
<path d="M4823 600 c-38 -23 -41 -41 -12 -68 37 -35 123 -42 188 -16 41 16 54
34 44 59 -17 46 -160 62 -220 25z"/>
<path d="M5293 600 c-49 -30 -43 -59 20 -85 82 -34 206 -3 207 53 0 27 -63 52
-130 52 -47 0 -74 -6 -97 -20z"/>
<path d="M5763 600 c-49 -30 -43 -59 20 -85 82 -34 206 -3 207 53 0 27 -63 52
-130 52 -47 0 -74 -6 -97 -20z"/>
<path d="M6233 600 c-49 -30 -43 -59 20 -85 82 -34 206 -3 207 53 0 27 -63 52
-130 52 -47 0 -74 -6 -97 -20z"/>
<path d="M6703 600 c-49 -30 -43 -59 20 -85 82 -34 206 -3 207 53 0 27 -63 52
-130 52 -47 0 -74 -6 -97 -20z"/>
<path d="M10 560 c0 -15 5 -20 18 -18 9 2 17 10 17 18 0 8 -8 16 -17 18 -13 2
-18 -3 -18 -18z"/>
<path d="M384 569 c-3 -6 -2 -15 4 -21 13 -13 32 -2 32 18 0 16 -26 19 -36 3z"/>
<path d="M480 560 c0 -15 5 -20 18 -18 9 2 17 10 17 18 0 8 -8 16 -17 18 -13
2 -18 -3 -18 -18z"/>
<path d="M854 569 c-3 -6 -2 -15 4 -21 13 -13 32 -2 32 18 0 16 -26 19 -36 3z"/>
<path d="M952 563 c4 -21 33 -25 33 -3 0 8 -8 16 -18 18 -14 3 -18 -1 -15 -15z"/>
<path d="M1326 572 c-8 -13 11 -35 23 -28 16 10 14 36 -3 36 -8 0 -17 -4 -20
-8z"/>
<path d="M1422 563 c2 -10 10 -18 18 -18 22 0 18 29 -3 33 -14 3 -18 -1 -15
-15z"/>
<path d="M1796 572 c-8 -13 11 -35 23 -28 16 10 14 36 -3 36 -8 0 -17 -4 -20
-8z"/>
<path d="M1892 563 c2 -10 10 -18 18 -18 22 0 18 29 -3 33 -14 3 -18 -1 -15
-15z"/>
<path d="M2267 574 c-9 -10 4 -34 19 -34 8 0 14 9 14 20 0 19 -19 27 -33 14z"/>
<path d="M2362 563 c2 -10 10 -18 18 -18 22 0 18 29 -3 33 -14 3 -18 -1 -15
-15z"/>
<path d="M2740 560 c0 -15 5 -20 18 -18 9 2 17 10 17 18 0 8 -8 16 -17 18 -13
2 -18 -3 -18 -18z"/>
<path d="M2832 563 c2 -10 10 -18 18 -18 22 0 18 29 -3 33 -14 3 -18 -1 -15
-15z"/>
<path d="M3212 563 c2 -10 10 -18 18 -18 22 0 18 29 -3 33 -14 3 -18 -1 -15
-15z"/>
<path d="M3302 563 c2 -10 10 -18 18 -18 8 0 16 8 18 18 2 12 -3 17 -18 17
-15 0 -20 -5 -18 -17z"/>
<path d="M3682 563 c2 -10 10 -18 18 -18 22 0 18 29 -3 33 -14 3 -18 -1 -15
-15z"/>
<path d="M3772 563 c2 -10 10 -18 18 -18 8 0 16 8 18 18 2 12 -3 17 -18 17
-15 0 -20 -5 -18 -17z"/>
<path d="M4152 563 c2 -10 10 -18 18 -18 22 0 18 29 -3 33 -14 3 -18 -1 -15
-15z"/>
<path d="M4242 563 c2 -10 10 -18 18 -18 8 0 16 8 18 18 2 12 -3 17 -18 17
-15 0 -20 -5 -18 -17z"/>
<path d="M4622 563 c2 -10 10 -18 18 -18 22 0 18 29 -3 33 -14 3 -18 -1 -15
-15z"/>
<path d="M4712 563 c2 -10 10 -18 18 -18 8 0 16 8 18 18 2 12 -3 17 -18 17
-15 0 -20 -5 -18 -17z"/>
<path d="M5092 563 c4 -21 33 -25 33 -3 0 8 -8 16 -18 18 -14 3 -18 -1 -15
-15z"/>
<path d="M5182 563 c2 -10 10 -18 18 -18 8 0 16 8 18 18 2 12 -3 17 -18 17
-15 0 -20 -5 -18 -17z"/>
<path d="M5562 563 c4 -21 33 -25 33 -3 0 8 -8 16 -18 18 -14 3 -18 -1 -15
-15z"/>
<path d="M5652 563 c2 -10 10 -18 18 -18 8 0 16 8 18 18 2 12 -3 17 -18 17
-15 0 -20 -5 -18 -17z"/>
<path d="M6032 563 c2 -10 10 -18 18 -18 22 0 18 29 -3 33 -14 3 -18 -1 -15
-15z"/>
<path d="M6122 563 c2 -10 10 -18 18 -18 8 0 16 8 18 18 2 12 -3 17 -18 17
-15 0 -20 -5 -18 -17z"/>
<path d="M6502 563 c2 -10 10 -18 18 -18 22 0 18 29 -3 33 -14 3 -18 -1 -15
-15z"/>
<path d="M6592 563 c2 -10 10 -18 18 -18 8 0 16 8 18 18 2 12 -3 17 -18 17
-15 0 -20 -5 -18 -17z"/>
<path d="M6972 563 c2 -10 10 -18 18 -18 22 0 18 29 -3 33 -14 3 -18 -1 -15
-15z"/>
<path d="M1860 95 c0 -50 4 -85 10 -85 6 0 10 18 10 40 l0 40 45 0 45 0 0 -40
c0 -29 4 -40 15 -40 12 0 15 16 15 85 0 69 -3 85 -15 85 -10 0 -15 -11 -15
-35 0 -35 0 -35 -45 -35 -45 0 -45 0 -45 35 0 19 -4 35 -10 35 -6 0 -10 -35
-10 -85z"/>
<path d="M2125 157 c-64 -54 -18 -156 64 -143 44 7 71 38 71 81 0 43 -27 74
-71 81 -28 5 -41 1 -64 -19z m95 -17 c39 -39 11 -110 -42 -110 -29 0 -42 9
-57 37 -12 24 0 71 22 85 22 14 57 8 77 -12z"/>
<path d="M2350 95 c0 -50 4 -85 10 -85 6 0 10 29 10 67 l0 67 47 -67 c26 -37
53 -67 60 -67 10 0 13 21 13 85 0 50 -4 85 -10 85 -6 0 -10 -27 -10 -60 0 -33
-4 -60 -9 -60 -5 0 -26 27 -47 60 -54 83 -64 79 -64 -25z"/>
<path d="M2615 157 c-64 -54 -18 -156 64 -143 44 7 71 38 71 81 0 43 -27 74
-71 81 -28 5 -41 1 -64 -19z m95 -17 c39 -39 11 -110 -42 -110 -29 0 -42 9
-57 37 -12 24 0 71 22 85 22 14 57 8 77 -12z"/>
<path d="M2843 108 c7 -79 20 -98 67 -98 14 0 36 7 48 16 19 13 22 24 22 85 0
88 -18 91 -22 3 -3 -74 -17 -92 -61 -80 -26 6 -27 9 -27 76 0 58 -3 70 -16 70
-15 0 -16 -9 -11 -72z"/>
<path d="M3090 95 c0 -50 4 -85 10 -85 6 0 10 18 10 40 0 33 3 40 20 40 19 0
26 -5 69 -60 30 -39 37 -15 8 27 -26 36 -26 38 -7 45 22 8 27 47 8 66 -7 7
-36 12 -65 12 l-53 0 0 -85z m105 40 c0 -16 -8 -21 -42 -23 -40 -3 -43 -2 -43
23 0 25 3 26 43 23 34 -2 42 -7 42 -23z"/>
<path d="M3330 95 c0 -50 4 -85 10 -85 6 0 10 35 10 85 0 50 -4 85 -10 85 -6
0 -10 -35 -10 -85z"/>
<path d="M3450 95 c0 -50 4 -85 10 -85 6 0 10 27 10 61 0 34 4 59 10 57 5 -1
26 -27 47 -57 56 -80 63 -78 63 23 0 51 -4 86 -10 86 -6 0 -10 -29 -10 -67 l0
-67 -46 67 c-63 91 -74 89 -74 -18z"/>
<path d="M3716 159 c-21 -16 -26 -29 -26 -64 0 -58 36 -89 93 -82 49 7 67 22
67 58 0 27 -3 29 -40 29 -22 0 -40 -4 -40 -10 0 -5 14 -10 30 -10 35 0 41 -23
11 -40 -51 -27 -101 2 -101 57 0 57 72 86 103 42 11 -15 17 -17 23 -8 10 17
-32 49 -66 49 -15 0 -39 -9 -54 -21z"/>
<path d="M4080 95 c0 -50 4 -85 10 -85 6 0 10 18 10 40 l0 40 45 0 45 0 0 -40
c0 -22 5 -40 10 -40 6 0 10 35 10 85 0 50 -4 85 -10 85 -5 0 -10 -16 -10 -35
0 -35 0 -35 -45 -35 -45 0 -45 0 -45 35 0 19 -4 35 -10 35 -6 0 -10 -35 -10
-85z"/>
<path d="M4331 100 c-34 -87 -35 -90 -23 -90 5 0 14 11 20 25 10 20 19 25 51
25 33 0 40 -4 45 -25 4 -14 13 -25 21 -25 11 0 6 20 -20 81 -19 44 -35 83 -35
85 0 2 -6 4 -14 4 -9 0 -27 -32 -45 -80z m69 -7 c0 -7 -11 -13 -25 -13 -28 0
-30 8 -13 45 l12 26 13 -23 c7 -13 12 -29 13 -35z"/>
<path d="M4540 95 c0 -50 4 -85 10 -85 6 0 10 29 10 67 l0 67 47 -67 c26 -37
53 -67 60 -67 10 0 13 21 13 85 0 50 -4 85 -10 85 -6 0 -10 -27 -10 -60 0 -33
-4 -60 -9 -60 -5 0 -26 27 -47 60 -54 83 -64 79 -64 -25z"/>
<path d="M4780 96 l0 -86 44 0 c63 0 96 29 96 84 0 62 -17 78 -84 84 l-56 4 0
-86z m104 48 c9 -8 16 -31 16 -49 0 -43 -22 -65 -66 -65 l-34 0 0 65 0 65 34
0 c19 0 42 -7 50 -16z"/>
<path d="M5036 167 c-11 -8 -17 -23 -14 -38 2 -19 13 -27 52 -40 52 -16 68
-35 45 -50 -22 -14 -61 -10 -81 8 -10 9 -21 13 -26 9 -11 -12 38 -46 67 -46
53 0 91 51 59 78 -7 5 -32 15 -56 22 -32 8 -42 16 -40 28 4 23 66 29 74 8 8
-20 24 -21 24 -1 0 31 -70 46 -104 22z"/>
</g>
</svg>
